<?xml version="1.0" encoding="utf-8"?>
<!-- Generator: Adobe Illustrator 15.1.0, SVG Export Plug-In . SVG Version: 6.00 Build 0)  -->
<!DOCTYPE svg PUBLIC "-//W3C//DTD SVG 1.1//EN" "http://www.w3.org/Graphics/SVG/1.1/DTD/svg11.dtd">
<svg version="1.1" id="レイヤー_1" xmlns="http://www.w3.org/2000/svg" xmlns:xlink="http://www.w3.org/1999/xlink" x="0px"
	 y="0px" width="800px" height="800px" viewBox="0 0 800 800" enable-background="new 0 0 800 800" xml:space="preserve">
<g>
	<path fill-rule="evenodd" clip-rule="evenodd" fill="none" stroke="#000000" stroke-width="3" stroke-miterlimit="10" d="
		M210.051,655.551c3.826,8.549,9.455,15.295,13.5,23.625c-24.516-4.359-42.361-15.389-58.5-28.125
		c3.535,8.568,14.531,15.329,14.625,23.625c-15.129-5.771-27.256-14.031-39.375-21.375c-11.654-7.062-25.866-14.099-34.875-24.75
		c-30.833-36.456-36.698-121.829-19.125-175.5c2.296-7.012,4.735-14.122,7.875-21.375c4.575-10.568,7.995-15.57,9-31.5
		c2.415-38.255,20.234-62.221,45-77.625c3.589-0.964,3.479,1.771,5.625,2.25c11.821-17.141,26.151-34.849,41.625-52.875
		c16.48-19.199,32.051-43.406,61.875-48.375c6.202-8.423,10.992-18.258,19.125-24.75c-5.375-12.44-17.655-20.436-16.875-34.875
		c1.296-24,39.074-50.644,65.25-56.25c4.401-4.224,4.298-12.952,12.375-13.5c0.794,3.706,1.808,7.192,2.25,11.25
		c3.75,0,7.5,0,11.25,0c-2.6-16.986,9.394-35.455,28.125-38.25c1.732,8.393,4.553,15.697,4.5,25.875
		c10.574-7.278,39.593-21.36,56.25-6.75c-8.238,6.51-20.326,6.999-29.25,13.5c-13.888,10.117-22.304,25.179-27,43.875
		c46.095-8.852,88.359,13.689,110.25,37.125c2.792,2.989,5.951,11.968,10.125,13.5c1.999,0.734,18.53-5.883,18,4.5
		c7.889-8.042,19.531-15.134,36-9c31.769,11.833,65.742,54.438,84.375,74.25c56.34,9.346,85.864,82.848,81,150.75
		c-0.4,5.591-2.563,11.313-2.25,16.875c0.521,9.235,5.815,18.836,7.875,28.125c13.608,61.374-4.951,120.975-49.5,139.5
		c-1.152-8.809,3.881-20.754,4.5-31.5c-13.746,27.879-26.4,56.851-60.75,64.125c-0.501-9.259,8.809-18.093,12.375-27
		c-7.581,2.928-14.417,16.327-27,18c-0.699-7.075,3.232-9.518,3.375-15.75c-8.422,20.832-24.158,29.672-50.625,33.75
		c2.141-4.61,1.241-7.581,4.5-12.375c-4.475-1.071-9.323,7.156-16.875,6.75c-0.187,6.846,4.3,14.061,1.125,20.25
		c-21.305-4.195-35.389-15.611-54-22.5c-1.607,0.251,1.045,5.6,0,9c-1.33,1.296-3.977,1.273-6.75,1.125
		c4.449,32.508-2.35,60.649-32.625,61.875c-10.879-16.121-13.276-40.724-27-54c-0.383-12.22-12.138-22.195-13.5-37.125
		c-8.752,3.41-18.814,5.722-30.375,3.375c-8.651,28.849-24.502,50.498-30.375,82.125c-34.287,11.47-47.401-25.009-39.375-56.25
		c-17.683,5.192-28.295,17.454-45,23.625c2.648,9.455,14.571,15.289,14.625,23.625C252.209,691.34,225.881,675.76,210.051,655.551z
		 M523.926,286.551c-0.063,7.432,3.292,13.249,2.25,20.25c-2.824,18.972-15.579,30.242-32.625,38.25
		c-11.24,21.01-27.869,36.631-46.125,50.625c12.12,3.184,19.894,11.768,32.625,11.25c3.282,2.173,0.93,5.702,2.25,7.875
		c16.788,5.706,37.191,0.964,46.125,14.625c4.811-2.689,13.948-1.052,19.125-3.375c-12.371-33.565-10.147-72.265-2.25-105.75
		c2.897-12.283,9.302-24.478,9-30.375c-0.756-14.78-15.228-24.148-21.375-34.875C529.867,264.236,524.021,275.346,523.926,286.551z
		 M238.176,336.051c-6.671,16.325-15.082,30.651-9,42.75c27.629-8.101,50.492,5.947,56.25,27c4.538-0.712,5.679-4.821,11.25-4.5
		c-21.563-24.187-40.322-51.179-39.375-97.875c-3.463,0.838-2.162-3.088-5.625-2.25
		C249.217,312.087,243.592,322.797,238.176,336.051z M588.051,427.176c-1.105-46.52-11.834-83.416-25.875-117
		C540.615,352.387,567.018,400.422,588.051,427.176z M323.676,413.676c-0.885-3.885,1.051-4.948,3.375-5.625
		c6.138-1.264,6.301,3.448,10.125,4.5c5.041-2.459,14.053-0.947,14.625-7.875c-21.439-3.686-34.554-15.696-49.5-25.875
		C304.981,394.87,314.135,404.467,323.676,413.676z M494.676,476.676c-1.744,18.389-4.065,39.631,9,48.375
		c9.876,3.999,22.854,4.896,29.25,12.375c0.39,12.735,1.779,24.471,3.375,36c8.656,5.219,17.882,9.868,29.25,12.375
		c4.707-28.668,12.886-53.864,16.875-83.25c-8.079-9.171-10.551-23.949-24.75-27c1.295,7.33,5.895,11.355,5.625,20.25
		c-1.605,0.27-1.897,1.853-3.375,2.25c-11.641,2.866-13.782-15.266-19.125-11.25c-0.835,6.14,4.241,15.626-1.125,19.125
		c-13.744,0.619-12.918-13.332-19.125-20.25c-3.368,8.406-2.094,18.241-11.25,16.875c-10.233-1.527-6.743-20.616-7.875-30.375
		C500.875,475.375,497.904,476.154,494.676,476.676z M274.176,486.801c-10.962,18.346-31.57,32.852-63,27
		c4.778,39.472,16.023,72.477,29.25,103.5c12.771-4.479,22.622-11.878,34.875-16.875c-2.29-14.643-7.009-32.664-4.5-48.375
		c4.875,0,9.75,0,14.625,0c-11.289-10.345,5.055-19.158,7.875-31.5c1.293-5.66-3.311-11.391,1.125-16.875
		c-1.681-1.694-6.414-0.336-5.625-4.5c0.817-3.829,5.339-8.186,2.25-12.375C285.506,482.934,280.81,486.299,274.176,486.801z
		 M325.926,618.426c2.093-6.157,3.815-12.686,3.375-21.375c-3.438,0.812-4.1-1.15-6.75-1.125
		C324.068,603.033,323.099,612.627,325.926,618.426z M484.551,595.926c-2.098,3.152-6.162,4.338-10.125,5.625
		c0.638,10.612,6.108,16.392,10.125,23.625C490.394,620.151,487.881,602.146,484.551,595.926z M548.676,630.801
		c0.682-7.193,5.004-10.746,6.75-16.875c-5.347-0.472-8.114,1.636-12.375,2.25c-0.252-0.873-0.031-2.219-1.125-2.25
		C545.6,618.127,544.817,626.784,548.676,630.801z M266.301,661.176c0.205-8.045,0.931-15.569,2.25-22.5
		c-7.871-0.004-12.499-3.252-19.125-4.5C253.615,644.611,259.732,653.119,266.301,661.176z"/>
	<path fill-rule="evenodd" clip-rule="evenodd" fill="none" stroke="#000000" stroke-width="3" stroke-miterlimit="10" d="
		M532.926,255.051c6.147,10.727,20.619,20.095,21.375,34.875c0.302,5.897-6.103,18.092-9,30.375
		c-7.897,33.485-10.121,72.185,2.25,105.75c-5.177,2.323-14.314,0.686-19.125,3.375c-8.934-13.661-29.337-8.919-46.125-14.625
		c-1.32-2.173,1.032-5.702-2.25-7.875c-12.731,0.518-20.505-8.066-32.625-11.25c18.256-13.994,34.885-29.615,46.125-50.625
		c17.046-8.008,29.801-19.278,32.625-38.25c1.042-7.001-2.313-12.818-2.25-20.25C524.021,275.346,529.867,264.236,532.926,255.051z"
		/>
	<path fill-rule="evenodd" clip-rule="evenodd" fill="none" stroke="#000000" stroke-width="3" stroke-miterlimit="10" d="
		M251.676,301.176c3.463-0.838,2.162,3.088,5.625,2.25c-0.947,46.696,17.812,73.688,39.375,97.875
		c-5.571-0.321-6.712,3.788-11.25,4.5c-5.758-21.053-28.621-35.101-56.25-27c-6.082-12.099,2.329-26.425,9-42.75
		C243.592,322.797,249.217,312.087,251.676,301.176z"/>
	<path fill-rule="evenodd" clip-rule="evenodd" fill="none" stroke="#000000" stroke-width="3" stroke-miterlimit="10" d="
		M562.176,310.176c14.041,33.584,24.77,70.48,25.875,117C567.018,400.422,540.615,352.387,562.176,310.176z"/>
	<path fill-rule="evenodd" clip-rule="evenodd" fill="none" stroke="#000000" stroke-width="3" stroke-miterlimit="10" d="
		M302.301,378.801c14.946,10.179,28.061,22.189,49.5,25.875c-0.572,6.928-9.584,5.416-14.625,7.875
		c-3.824-1.052-3.987-5.764-10.125-4.5c-2.324,0.677-4.26,1.74-3.375,5.625C314.135,404.467,304.981,394.87,302.301,378.801z"/>
	<path fill-rule="evenodd" clip-rule="evenodd" fill="none" stroke="#000000" stroke-width="3" stroke-miterlimit="10" d="
		M501.426,472.176c1.132,9.759-2.358,28.848,7.875,30.375c9.156,1.366,7.882-8.469,11.25-16.875
		c6.207,6.918,5.381,20.869,19.125,20.25c5.366-3.499,0.29-12.985,1.125-19.125c5.343-4.016,7.484,14.116,19.125,11.25
		c1.478-0.397,1.77-1.98,3.375-2.25c0.27-8.895-4.33-12.92-5.625-20.25c14.199,3.051,16.671,17.829,24.75,27
		c-3.989,29.386-12.168,54.582-16.875,83.25c-11.368-2.507-20.594-7.156-29.25-12.375c-1.596-11.529-2.985-23.265-3.375-36
		c-6.396-7.479-19.374-8.376-29.25-12.375c-13.065-8.744-10.744-29.986-9-48.375C497.904,476.154,500.875,475.375,501.426,472.176z"
		/>
	<path fill-rule="evenodd" clip-rule="evenodd" fill="none" stroke="#000000" stroke-width="3" stroke-miterlimit="10" d="
		M291.051,486.801c3.089,4.189-1.433,8.546-2.25,12.375c-0.789,4.164,3.944,2.806,5.625,4.5c-4.436,5.484,0.168,11.215-1.125,16.875
		c-2.82,12.342-19.164,21.155-7.875,31.5c-4.875,0-9.75,0-14.625,0c-2.509,15.711,2.21,33.732,4.5,48.375
		c-12.253,4.997-22.104,12.396-34.875,16.875c-13.227-31.023-24.472-64.028-29.25-103.5c31.43,5.852,52.038-8.654,63-27
		C280.81,486.299,285.506,482.934,291.051,486.801z"/>
	<path fill-rule="evenodd" clip-rule="evenodd" fill="none" stroke="#000000" stroke-width="3" stroke-miterlimit="10" d="
		M322.551,595.926c2.65-0.025,3.312,1.938,6.75,1.125c0.44,8.689-1.282,15.218-3.375,21.375
		C323.099,612.627,324.068,603.033,322.551,595.926z"/>
	<path fill-rule="evenodd" clip-rule="evenodd" fill="none" stroke="#000000" stroke-width="3" stroke-miterlimit="10" d="
		M484.551,625.176c-4.017-7.233-9.487-13.013-10.125-23.625c3.963-1.287,8.027-2.473,10.125-5.625
		C487.881,602.146,490.394,620.151,484.551,625.176z"/>
	<path fill-rule="evenodd" clip-rule="evenodd" fill="none" stroke="#000000" stroke-width="3" stroke-miterlimit="10" d="
		M249.426,634.176c6.626,1.248,11.254,4.496,19.125,4.5c-1.319,6.931-2.045,14.455-2.25,22.5
		C259.732,653.119,253.615,644.611,249.426,634.176z"/>
	<path fill-rule="evenodd" clip-rule="evenodd" fill="none" stroke="#000000" stroke-width="3" stroke-miterlimit="10" d="
		M285.426,690.426c-0.054-8.336-11.977-14.17-14.625-23.625c16.705-6.171,27.317-18.433,45-23.625
		c-8.026,31.241,5.088,67.72,39.375,56.25c5.873-31.627,21.724-53.276,30.375-82.125c11.561,2.347,21.623,0.035,30.375-3.375
		c1.362,14.93,13.117,24.905,13.5,37.125c13.724,13.276,16.121,37.879,27,54c30.275-1.226,37.074-29.367,32.625-61.875
		c2.773,0.148,5.42,0.171,6.75-1.125c1.045-3.4-1.607-8.749,0-9c18.611,6.889,32.695,18.305,54,22.5
		c3.175-6.189-1.312-13.404-1.125-20.25c7.552,0.406,12.4-7.821,16.875-6.75c-3.259,4.794-2.359,7.765-4.5,12.375
		c26.467-4.078,42.203-12.918,50.625-33.75c-0.143,6.232-4.074,8.675-3.375,15.75c12.583-1.673,19.419-15.072,27-18
		c-3.566,8.907-12.876,17.741-12.375,27c34.35-7.274,47.004-36.246,60.75-64.125c-0.619,10.746-5.652,22.691-4.5,31.5
		c44.549-18.525,63.108-78.126,49.5-139.5c-2.06-9.289-7.354-18.89-7.875-28.125c-0.313-5.562,1.85-11.284,2.25-16.875
		c4.864-67.902-24.66-141.404-81-150.75c-18.633-19.812-52.606-62.417-84.375-74.25c-16.469-6.134-28.111,0.958-36,9
		c0.53-10.383-16.001-3.766-18-4.5c-4.174-1.532-7.333-10.511-10.125-13.5c-21.891-23.436-64.155-45.977-110.25-37.125
		c4.696-18.696,13.112-33.758,27-43.875c8.924-6.501,21.012-6.99,29.25-13.5c-16.657-14.61-45.676-0.528-56.25,6.75
		c0.053-10.178-2.768-17.482-4.5-25.875c-18.731,2.795-30.725,21.264-28.125,38.25c-3.75,0-7.5,0-11.25,0
		c-0.442-4.058-1.456-7.544-2.25-11.25c-8.077,0.548-7.974,9.276-12.375,13.5c-26.176,5.606-63.954,32.25-65.25,56.25
		c-0.78,14.439,11.5,22.435,16.875,34.875c-8.133,6.492-12.923,16.327-19.125,24.75c-29.824,4.969-45.395,29.176-61.875,48.375
		c-15.474,18.026-29.804,35.734-41.625,52.875c-2.146-0.479-2.036-3.214-5.625-2.25c-24.766,15.404-42.585,39.37-45,77.625
		c-1.005,15.93-4.425,20.932-9,31.5c-3.14,7.253-5.579,14.363-7.875,21.375c-17.573,53.671-11.708,139.044,19.125,175.5
		c9.009,10.651,23.221,17.688,34.875,24.75c12.119,7.344,24.246,15.604,39.375,21.375c-0.094-8.296-11.09-15.057-14.625-23.625
		c16.139,12.736,33.984,23.766,58.5,28.125c-4.045-8.33-9.674-15.076-13.5-23.625C225.881,675.76,252.209,691.34,285.426,690.426z"
		/>
	<path fill-rule="evenodd" clip-rule="evenodd" fill="none" stroke="#000000" stroke-width="3" stroke-miterlimit="10" d="
		M541.926,613.926c1.094,0.031,0.873,1.377,1.125,2.25c4.261-0.614,7.028-2.722,12.375-2.25c-1.746,6.129-6.068,9.682-6.75,16.875
		C544.817,626.784,545.6,618.127,541.926,613.926z"/>
</g>
</svg>
