<?xml version="1.0" encoding="utf-8"?>
<!-- Generator: Adobe Illustrator 15.1.0, SVG Export Plug-In . SVG Version: 6.00 Build 0)  -->
<!DOCTYPE svg PUBLIC "-//W3C//DTD SVG 1.1//EN" "http://www.w3.org/Graphics/SVG/1.1/DTD/svg11.dtd">
<svg version="1.1" id="Capa_1" xmlns="http://www.w3.org/2000/svg" xmlns:xlink="http://www.w3.org/1999/xlink" x="0px" y="0px"
	 width="35.752px" height="35.752px" viewBox="0 0 35.752 35.752" enable-background="new 0 0 35.752 35.752" xml:space="preserve">
<g>
	<path fill="#FFFFFF" d="M25.353,22.479l1.967,7.34c0.035,0.134-0.043,0.271-0.178,0.307c-0.021,0.006-0.043,0.009-0.064,0.009
		c-0.11,0-0.211-0.071-0.242-0.186l-2.096-7.821l-6.613-3.817v7.635l5.727,5.729c0.099,0.1,0.099,0.258,0,0.354
		c-0.051,0.051-0.112,0.074-0.179,0.074c-0.062,0-0.128-0.023-0.177-0.074l-5.372-5.372v3.937c0,0.139-0.112,0.25-0.25,0.25
		s-0.25-0.111-0.25-0.25v-3.937l-5.372,5.372c-0.098,0.1-0.256,0.1-0.354,0c-0.098-0.098-0.098-0.256,0-0.354l5.726-5.729v-7.635
		l-6.613,3.817l-2.096,7.821c-0.03,0.11-0.131,0.186-0.242,0.186c-0.021,0-0.043-0.003-0.065-0.009
		c-0.133-0.035-0.212-0.173-0.177-0.307l1.967-7.34l-3.409,1.97c-0.04,0.021-0.083,0.032-0.125,0.032
		c-0.086,0-0.17-0.045-0.216-0.125c-0.069-0.119-0.028-0.271,0.091-0.342l3.408-1.97L2.809,20.08
		c-0.134-0.035-0.213-0.173-0.177-0.308c0.036-0.135,0.175-0.211,0.306-0.178l7.823,2.096l6.615-3.814l-6.613-3.816l-7.822,2.094
		c-0.021,0.007-0.043,0.01-0.064,0.01c-0.11,0-0.211-0.073-0.242-0.186c-0.036-0.134,0.043-0.271,0.177-0.307l7.339-1.966
		l-3.407-1.968c-0.12-0.069-0.161-0.223-0.091-0.342c0.068-0.119,0.222-0.158,0.341-0.093l3.407,1.968L8.434,5.932
		C8.398,5.798,8.477,5.661,8.611,5.625C8.748,5.59,8.882,5.668,8.918,5.802l2.096,7.82l6.614,3.817V9.806l-5.726-5.728
		c-0.098-0.099-0.098-0.257,0-0.354c0.098-0.098,0.256-0.098,0.354,0l5.372,5.373V5.161c0-0.139,0.112-0.25,0.25-0.25
		c0.138,0,0.25,0.111,0.25,0.25v3.936L23.5,3.724c0.101-0.098,0.256-0.098,0.354,0c0.098,0.098,0.098,0.256,0,0.354l-5.728,5.728
		v7.635l6.614-3.817l2.096-7.82c0.036-0.134,0.176-0.211,0.309-0.177c0.133,0.035,0.213,0.173,0.178,0.307l-1.967,7.338l3.406-1.968
		c0.117-0.067,0.271-0.028,0.342,0.093c0.066,0.119,0.025,0.271-0.092,0.342l-3.406,1.968l7.338,1.966
		c0.135,0.035,0.214,0.173,0.178,0.307c-0.03,0.111-0.131,0.186-0.242,0.186c-0.021,0-0.043-0.003-0.062-0.01l-7.821-2.094
		l-6.619,3.814l6.612,3.814l7.822-2.094c0.133-0.035,0.271,0.043,0.307,0.176c0.035,0.136-0.043,0.271-0.178,0.309l-7.338,1.966
		l3.405,1.97c0.12,0.067,0.161,0.223,0.093,0.342c-0.045,0.08-0.132,0.125-0.218,0.125c-0.042,0-0.085-0.01-0.125-0.032
		L25.353,22.479z M16.876,7.288v-2.24l-0.937-0.541V2.272l1.937-1.117l1.938,1.117v2.234l-0.938,0.541v2.24l4.092-4.092
		c0.195-0.195,0.195-0.512,0-0.707c-0.193-0.195-0.512-0.195-0.707,0l-1.445,1.447V1.694L17.876,0l-2.937,1.694v2.242l-1.448-1.447
		c-0.195-0.195-0.512-0.195-0.707,0c-0.195,0.195-0.195,0.512,0,0.707L16.876,7.288z M18.875,10.118l5.776-5.779l1.558,0.898
		l-2.114,7.894l-5.22,3.015V10.118z M19.875,14.412l3.36-1.938l1.81-6.752l-0.229-0.133l-4.94,4.943V14.412z M28.483,10.597V9.515
		l1.938-1.117l1.938,1.119v2.234l-1.938,1.118l-0.938-0.541l-1.939,1.121l5.59,1.497c0.043,0.012,0.09,0.018,0.133,0.018
		c0.221,0,0.422-0.146,0.479-0.37c0.071-0.268-0.087-0.541-0.354-0.612l-1.979-0.53l1.943-1.121v-3.39l-2.938-1.697l-1.939,1.121
		l0.527-1.979c0.071-0.268-0.087-0.54-0.354-0.612c-0.266-0.063-0.541,0.088-0.612,0.354l-1.499,5.592L28.483,10.597z
		 M25.095,14.862l7.893,2.114v1.798l-7.896,2.113l-5.217-3.013L25.095,14.862z M25.235,15.937l-3.36,1.939l3.36,1.938l6.75-1.809
		v-0.264L25.235,15.937z M33.134,20.808l-5.589,1.495l1.938,1.121l0.937-0.541l1.938,1.118l-0.002,2.234l-1.938,1.117l-1.937-1.117
		v-1.082l-1.941-1.119l1.498,5.592c0.062,0.227,0.262,0.371,0.482,0.371c0.043,0,0.086-0.006,0.129-0.02
		c0.268-0.069,0.426-0.346,0.354-0.609l-0.528-1.979l1.942,1.12l2.938-1.692l0.002-3.395l-1.944-1.121l1.979-0.527
		c0.268-0.072,0.426-0.349,0.354-0.613C33.675,20.896,33.401,20.735,33.134,20.808z M24.093,22.621l2.116,7.896l-1.556,0.896
		l-5.778-5.779V19.61L24.093,22.621z M25.045,30.028l-1.81-6.752l-3.36-1.938v3.88l4.942,4.943L25.045,30.028z M18.875,28.464v2.24
		l0.938,0.541v2.232l-1.938,1.119l-1.937-1.117v-2.233l0.937-0.542v-2.243l-4.092,4.097c-0.195,0.193-0.195,0.512,0,0.707
		c0.195,0.193,0.512,0.193,0.707,0l1.448-1.449v2.244l2.937,1.692l2.938-1.692v-2.242l1.445,1.447c0.195,0.193,0.514,0.193,0.707,0
		c0.195-0.195,0.195-0.514,0-0.707L18.875,28.464z M16.876,25.634l-5.777,5.779l-1.557-0.896l2.116-7.896l5.218-3.017V25.634z
		 M15.876,21.34l-3.36,1.938l-1.81,6.752l0.229,0.134l4.941-4.942V21.34z M7.268,25.153v1.082l-1.937,1.117l-1.936-1.117
		l-0.002-2.234l1.938-1.118l0.937,0.541l1.938-1.121l-5.589-1.495c-0.266-0.066-0.541,0.088-0.612,0.354
		c-0.071,0.268,0.087,0.541,0.354,0.613l1.98,0.527l-1.944,1.121l0.002,3.395l2.936,1.692l1.944-1.12l-0.53,1.979
		c-0.071,0.267,0.087,0.54,0.354,0.609c0.043,0.014,0.087,0.02,0.13,0.02c0.221,0,0.423-0.146,0.482-0.371l1.498-5.592L7.268,25.153
		z M10.658,20.892l-7.893-2.115v-1.798l7.892-2.113l5.219,3.013L10.658,20.892z M10.516,19.813l3.36-1.938l-3.361-1.939l-6.75,1.809
		v0.264L10.516,19.813z M2.486,14.964c0.043,0,0.086-0.006,0.13-0.018l5.59-1.497l-1.94-1.121l-0.937,0.541l-1.937-1.118V9.517
		l1.937-1.119l1.937,1.117v1.082l1.94,1.122L7.707,6.127C7.636,5.86,7.361,5.709,7.095,5.773C6.828,5.845,6.67,6.12,6.741,6.386
		l0.53,1.977l-1.942-1.12L2.392,8.939v3.391l1.944,1.121L2.357,13.98c-0.267,0.072-0.425,0.347-0.354,0.613
		C2.064,14.815,2.266,14.964,2.486,14.964z M11.657,13.131L9.542,5.237l1.557-0.898l5.777,5.779v6.025L11.657,13.131z M10.706,5.722
		l1.809,6.752l3.361,1.938v-3.88l-4.941-4.943L10.706,5.722z"/>
</g>
</svg>
