<?xml version="1.0" encoding="utf-8"?>
<!-- Generator: Adobe Illustrator 15.1.0, SVG Export Plug-In . SVG Version: 6.00 Build 0)  -->
<!DOCTYPE svg PUBLIC "-//W3C//DTD SVG 1.1//EN" "http://www.w3.org/Graphics/SVG/1.1/DTD/svg11.dtd">
<svg version="1.1" id="Capa_1" xmlns="http://www.w3.org/2000/svg" xmlns:xlink="http://www.w3.org/1999/xlink" x="0px" y="0px"
	 width="35.404px" height="35.404px" viewBox="0 0 35.404 35.404" enable-background="new 0 0 35.404 35.404" xml:space="preserve">
<g>
	<path fill="#FFFFFF" d="M32.797,24.097l1.242,0.718l-2.01,3.48L30.79,27.58l-3.179,0.847l-0.85-3.176l-0.35-0.198l0.528,1.969
		c0.072,0.276-0.092,0.562-0.369,0.637c-0.278,0.067-0.563-0.091-0.639-0.369l-1.18-4.396l2.899,1.674l0.694,2.586l1.877-0.501
		l-0.174-0.695l1.597,0.916l0.968-1.677l-1.728-0.999l0.812-0.162l-0.493-1.838l-2.585,0.696l-2.897-1.676l4.395-1.177
		c0.278-0.063,0.563,0.09,0.637,0.369c0.074,0.278-0.091,0.563-0.367,0.637l-1.966,0.526l0.347,0.2l3.176-0.853L32.797,24.097z
		 M18.671,11.734l5.863-5.865l-2.146,8.008l-3.718,2.148V11.734z M19.713,14.221l1.782-1.027l1.027-3.837l-2.811,2.81L19.713,14.221
		L19.713,14.221z M14.254,5.046c-0.203-0.203-0.532-0.203-0.735,0c-0.203,0.202-0.203,0.533,0,0.737l3.218,3.216V5.652L14.842,3.76
		l1.368-1.368l0.526,0.526V1.042h1.936l0.004,1.87l0.521-0.521l1.367,1.368l-1.894,1.893v3.347l3.218-3.216
		c0.202-0.204,0.202-0.535,0-0.737c-0.201-0.203-0.533-0.203-0.736,0l-1.438,1.438V6.082l2.323-2.322l-2.323-2.326V0h-4.018v1.434
		L13.37,3.76l2.326,2.322v0.401L14.254,5.046z M23.354,15.558l8.01,2.146l-8.012,2.146l-3.713-2.146L23.354,15.558z M23.502,16.675
		l-1.779,1.028l1.779,1.026l3.836-1.026L23.502,16.675z M28.35,8.254l1.984,0.531v0.507l1.316-0.759l0.966,1.676l-1.646,0.955
		l0.737,0.184l-0.498,1.862l-2.589-0.693l-2.896,1.671l4.395,1.178c0.045,0.012,0.092,0.018,0.137,0.018
		c0.229,0,0.439-0.151,0.502-0.384c0.072-0.279-0.092-0.562-0.368-0.639l-1.967-0.527l0.347-0.199l3.178,0.854l0.851-3.181
		l1.24-0.715l-2.01-3.482l-1.242,0.718l-3.175-0.852l-0.851,3.177l-0.347,0.198l0.525-1.963c0.074-0.28-0.09-0.563-0.368-0.64
		c-0.274-0.065-0.563,0.092-0.637,0.369l-1.179,4.397l2.896-1.675L28.35,8.254z M7.057,27.152l-1.878-0.501l0.175-0.703
		l-1.599,0.924l-0.967-1.677l1.725-1.001l-0.809-0.16l0.492-1.838l2.586,0.696l2.898-1.676L5.287,20.04
		c-0.275-0.063-0.562,0.092-0.637,0.369c-0.074,0.276,0.09,0.563,0.369,0.637l1.965,0.526l-0.347,0.2L3.462,20.92l-0.85,3.178
		L1.37,24.815l2.009,3.48l1.239-0.717l3.178,0.848l0.852-3.176l0.347-0.199l-0.528,1.967c-0.074,0.278,0.091,0.562,0.369,0.639
		c0.276,0.075,0.563-0.09,0.639-0.368l1.179-4.395l-2.898,1.67L7.057,27.152z M16.735,23.67l-5.864,5.865l2.148-8.008l3.717-2.148
		L16.735,23.67L16.735,23.67z M15.693,21.184l-1.78,1.026l-1.028,3.837l2.811-2.81v-2.055L15.693,21.184L15.693,21.184z
		 M21.152,30.361c0.202,0.203,0.534,0.203,0.736,0c0.201-0.203,0.201-0.533,0-0.737l-3.22-3.216v3.345l1.895,1.894l-1.365,1.369
		l-0.527-0.525v1.874h-1.934l-0.006-1.869l-0.521,0.521l-1.368-1.368l1.895-1.895v-3.347l-3.218,3.218
		c-0.203,0.204-0.203,0.534,0,0.737c0.204,0.203,0.533,0.203,0.736,0l1.44-1.44v0.402l-2.326,2.323l2.326,2.326v1.432h4.018v-1.432
		l2.325-2.326l-2.325-2.323v-0.4L21.152,30.361z M3.458,14.486l3.179-0.854l0.346,0.199l-1.967,0.527
		c-0.278,0.075-0.443,0.36-0.369,0.639c0.062,0.232,0.272,0.384,0.503,0.384c0.044,0,0.089-0.006,0.135-0.018l4.396-1.178
		l-2.897-1.671l-2.589,0.693l-0.499-1.864l0.747-0.186l-1.653-0.952l0.967-1.675L5.07,9.288V8.786l1.985-0.534l0.694,2.586
		l2.898,1.677L9.47,8.115C9.396,7.838,9.11,7.679,8.832,7.746C8.554,7.821,8.39,8.106,8.463,8.385l0.526,1.964L8.644,10.15
		L7.792,6.974L4.617,7.825L3.375,7.107L1.366,10.59l1.24,0.715L3.458,14.486z M22.386,21.525l2.146,8.006l-5.861-5.861v-4.291
		L22.386,21.525z M22.519,26.046l-1.025-3.835l-1.78-1.026v2.055L22.519,26.046z M12.052,15.558l3.716,2.146l-3.716,2.146
		l-8.009-2.146L12.052,15.558z M13.685,17.703l-1.779-1.028L8.07,17.703l3.835,1.026L13.685,17.703z M13.019,13.88l-2.148-8.008
		l5.864,5.866v4.291L13.019,13.88z M12.885,9.358l1.028,3.837l1.78,1.027v-2.057L12.885,9.358z"/>
</g>
</svg>
