<?xml version="1.0" encoding="utf-8"?>
<!-- Generator: Adobe Illustrator 15.1.0, SVG Export Plug-In . SVG Version: 6.00 Build 0)  -->
<!DOCTYPE svg PUBLIC "-//W3C//DTD SVG 1.1//EN" "http://www.w3.org/Graphics/SVG/1.1/DTD/svg11.dtd">
<svg version="1.1" id="Capa_1" xmlns="http://www.w3.org/2000/svg" xmlns:xlink="http://www.w3.org/1999/xlink" x="0px" y="0px"
	 width="38.477px" height="38.477px" viewBox="0 0 38.477 38.477" enable-background="new 0 0 38.477 38.477" xml:space="preserve">
<g>
	<path fill="#FFFFFF" d="M33.721,13.478l2.235-1.286V9.62l-2.235-1.289L31.486,9.62v1.706l-2.168,1.247v-1.281
		c0-0.413-0.336-0.75-0.75-0.75s-0.75,0.337-0.75,0.75v2.146l-1.271,0.729v-4.062c0-0.414-0.336-0.75-0.75-0.75
		s-0.75,0.336-0.75,0.75v4.553c-1.188-1.506-2.945-2.539-4.948-2.771l4.019-2.319c0.358-0.207,0.481-0.666,0.274-1.024
		c-0.206-0.356-0.663-0.481-1.024-0.272l-3.378,1.951V8.751l1.714-0.99c0.359-0.206,0.481-0.666,0.275-1.022
		c-0.207-0.357-0.664-0.482-1.025-0.273l-0.964,0.558V4.717l1.485-0.855V1.286L19.238,0l-2.235,1.286v2.572l1.485,0.855v2.39
		L17.38,6.462c-0.358-0.209-0.817-0.084-1.023,0.273c-0.207,0.356-0.084,0.815,0.273,1.022l1.858,1.073v1.47l-3.522-2.034
		c-0.359-0.207-0.817-0.082-1.023,0.273c-0.207,0.358-0.084,0.817,0.273,1.024l4.048,2.338c-2.039,0.27-3.813,1.37-4.98,2.951
		l-0.002-4.749c0-0.414-0.336-0.75-0.75-0.75s-0.75,0.336-0.75,0.75l0.002,3.978L10.51,13.35V11.29c0-0.413-0.336-0.75-0.75-0.75
		c-0.413,0-0.75,0.337-0.75,0.75v1.196l-2.02-1.162V9.618L4.756,8.329L2.521,9.618v2.572l2.234,1.286l1.482-0.853l2.021,1.164
		l-1.038,0.602c-0.358,0.207-0.481,0.666-0.274,1.022c0.14,0.24,0.392,0.375,0.649,0.375c0.127,0,0.257-0.031,0.375-0.102
		l1.791-1.033l1.273,0.733L7.579,17.38c-0.357,0.207-0.48,0.666-0.273,1.024c0.14,0.239,0.392,0.375,0.649,0.375
		c0.127,0,0.256-0.032,0.374-0.102l4.106-2.37c-0.39,0.897-0.606,1.89-0.606,2.93c0,1.02,0.207,1.99,0.581,2.875l-4.081-2.354
		c-0.357-0.209-0.816-0.084-1.023,0.272c-0.207,0.357-0.084,0.816,0.273,1.022l3.492,2.019l-1.274,0.731l-1.825-1.057
		c-0.36-0.207-0.818-0.082-1.024,0.275c-0.207,0.355-0.084,0.814,0.274,1.021l1.073,0.62l-2.06,1.186l-1.481-0.854l-2.235,1.291
		l0.002,2.572l2.233,1.287l2.235-1.287v-1.709l2.021-1.162v1.155c0,0.414,0.337,0.75,0.75,0.75c0.414,0,0.75-0.336,0.75-0.75V25.12
		l1.271-0.729v3.938c0,0.414,0.336,0.75,0.75,0.75s0.75-0.336,0.75-0.75V23.62c1.156,1.566,2.91,2.66,4.925,2.943l-3.99,2.305
		c-0.357,0.207-0.48,0.666-0.273,1.022c0.206,0.355,0.664,0.482,1.023,0.273l3.522-2.034v1.47l-1.858,1.073
		c-0.357,0.207-0.48,0.666-0.273,1.022c0.206,0.356,0.665,0.481,1.023,0.272l1.108-0.641v2.432l-1.485,0.854v2.572l2.235,1.288
		l2.235-1.286v-2.572l-1.485-0.854v-2.348l0.965,0.557c0.117,0.068,0.246,0.103,0.373,0.103c0.261,0,0.513-0.135,0.65-0.375
		c0.207-0.356,0.084-0.815-0.273-1.022l-1.715-0.988v-1.467l3.379,1.951c0.117,0.067,0.246,0.102,0.373,0.102
		c0.261,0,0.513-0.137,0.65-0.375c0.207-0.357,0.084-0.816-0.273-1.023l-3.961-2.287c1.979-0.246,3.713-1.271,4.894-2.766v4.514
		c0,0.414,0.337,0.75,0.75,0.75c0.414,0,0.75-0.336,0.75-0.75v-4.021l1.271,0.73v2.104c0,0.414,0.336,0.75,0.75,0.75
		s0.75-0.336,0.75-0.75v-1.24l2.166,1.246v1.709l2.235,1.285l2.232-1.285l0.003-2.572l-2.235-1.287l-1.481,0.854l-2.133-1.228
		l1-0.577c0.357-0.207,0.48-0.666,0.273-1.023c-0.207-0.356-0.666-0.481-1.023-0.274l-1.752,1.016l-1.273-0.734l3.42-1.973
		c0.357-0.207,0.48-0.666,0.273-1.025c-0.207-0.354-0.664-0.479-1.023-0.272l-3.896,2.25c0.346-0.855,0.541-1.789,0.541-2.77
		c0-0.998-0.201-1.948-0.561-2.816L30,18.691c0.118,0.067,0.247,0.101,0.374,0.101c0.261,0,0.514-0.135,0.65-0.375
		c0.207-0.357,0.084-0.816-0.274-1.023l-3.386-1.953l1.275-0.732l1.717,0.991c0.117,0.067,0.248,0.101,0.375,0.101
		c0.26,0,0.512-0.135,0.647-0.375c0.207-0.356,0.084-0.815-0.272-1.022l-0.965-0.563l2.098-1.207L33.721,13.478z M19.987,25.094
		c-0.246,0.03-0.495,0.055-0.75,0.055s-0.504-0.021-0.75-0.055c-1.607-0.204-3.012-1.058-3.947-2.286
		c-0.303-0.397-0.561-0.829-0.756-1.298c-0.292-0.697-0.455-1.467-0.455-2.271s0.163-1.572,0.455-2.271
		c0.195-0.467,0.453-0.897,0.756-1.297c0.938-1.229,2.34-2.082,3.947-2.287c0.246-0.029,0.495-0.053,0.75-0.053
		s0.504,0.021,0.75,0.053c1.607,0.205,3.012,1.059,3.947,2.287c0.303,0.397,0.561,0.83,0.756,1.297
		c0.293,0.699,0.455,1.468,0.455,2.271s-0.162,1.573-0.455,2.271c-0.195,0.469-0.453,0.897-0.756,1.298
		C22.999,24.039,21.594,24.89,19.987,25.094z"/>
</g>
</svg>
