<?xml version="1.0" encoding="utf-8"?>
<!-- Generator: Adobe Illustrator 15.1.0, SVG Export Plug-In . SVG Version: 6.00 Build 0)  -->
<!DOCTYPE svg PUBLIC "-//W3C//DTD SVG 1.1//EN" "http://www.w3.org/Graphics/SVG/1.1/DTD/svg11.dtd">
<svg version="1.1" id="Capa_1" xmlns="http://www.w3.org/2000/svg" xmlns:xlink="http://www.w3.org/1999/xlink" x="0px" y="0px"
	 width="36.074px" height="36.074px" viewBox="0 0 36.074 36.074" enable-background="new 0 0 36.074 36.074" xml:space="preserve">
<g>
	<path fill="#FFFFFF" d="M33.527,19.579l-8.045,2.153l-2.567-1.48l2.737-0.734c0.277-0.072,0.441-0.359,0.369-0.637
		c-0.074-0.277-0.359-0.444-0.638-0.369l-3.743,1.001l-2.562-1.478l2.562-1.479l3.741,1.003c0.045,0.013,0.091,0.018,0.136,0.018
		c0.229,0,0.439-0.153,0.502-0.386c0.074-0.278-0.09-0.563-0.369-0.638l-2.735-0.733l2.565-1.481l8.045,2.155
		c0.045,0.013,0.092,0.018,0.137,0.018c0.23,0,0.439-0.153,0.501-0.387c0.073-0.278-0.091-0.563-0.368-0.637l-7.038-1.885
		l6.708-3.874c0.248-0.143,0.333-0.462,0.189-0.711c-0.145-0.25-0.463-0.334-0.711-0.19l-6.705,3.873l1.886-7.037
		c0.073-0.278-0.091-0.563-0.368-0.638c-0.277-0.073-0.562,0.09-0.638,0.369l-2.155,8.042l-2.566,1.482l0.732-2.735
		c0.074-0.278-0.092-0.564-0.367-0.638c-0.275-0.073-0.563,0.091-0.639,0.369l-1.003,3.741l-2.562,1.476v-2.957l2.737-2.741
		c0.203-0.203,0.203-0.534,0-0.736c-0.202-0.203-0.532-0.203-0.735,0l-2.002,2.004V9.739l5.887-5.889
		c0.203-0.203,0.203-0.533,0-0.737c-0.202-0.203-0.533-0.203-0.736,0l-5.15,5.153V0.521C18.559,0.234,18.325,0,18.038,0
		s-0.521,0.234-0.521,0.521v7.745l-5.151-5.153c-0.204-0.203-0.534-0.203-0.737,0c-0.203,0.204-0.203,0.534,0,0.737l5.888,5.889
		v2.965L15.514,10.7c-0.204-0.203-0.534-0.203-0.737,0c-0.203,0.203-0.203,0.533,0,0.736l2.74,2.741v2.957l-2.562-1.479
		l-1.003-3.742c-0.076-0.278-0.359-0.441-0.638-0.369c-0.277,0.074-0.442,0.361-0.369,0.637l0.733,2.735l-2.567-1.482L8.957,5.393
		c-0.076-0.279-0.36-0.442-0.638-0.369C8.041,5.098,7.876,5.384,7.95,5.662l1.885,7.037L3.129,8.825
		c-0.249-0.144-0.567-0.06-0.711,0.19S2.36,9.583,2.608,9.727L9.317,13.6l-7.039,1.885C2,15.56,1.835,15.846,1.91,16.123
		c0.062,0.233,0.272,0.387,0.502,0.387c0.045,0,0.09-0.006,0.135-0.018l8.045-2.155l2.566,1.481l-2.736,0.733
		c-0.278,0.074-0.442,0.36-0.369,0.637c0.062,0.234,0.273,0.387,0.502,0.387c0.045,0,0.09-0.005,0.135-0.018l3.742-1.003
		l2.562,1.479l-2.562,1.479l-3.743-1.002c-0.276-0.075-0.563,0.09-0.637,0.369c-0.074,0.279,0.091,0.562,0.369,0.639l2.737,0.731
		l-2.567,1.481l-8.045-2.153c-0.276-0.072-0.563,0.091-0.637,0.368C1.835,20.225,2,20.51,2.278,20.583l7.039,1.886l-6.708,3.873
		c-0.249,0.145-0.334,0.463-0.19,0.713c0.097,0.166,0.272,0.262,0.452,0.262c0.088,0,0.178-0.022,0.26-0.071l6.708-3.872
		l-1.887,7.035c-0.074,0.279,0.091,0.562,0.369,0.639c0.045,0.014,0.091,0.018,0.135,0.018c0.23,0,0.44-0.152,0.503-0.388
		l2.155-8.042l2.566-1.48l-0.732,2.734c-0.074,0.277,0.091,0.562,0.369,0.637c0.045,0.015,0.091,0.019,0.136,0.019
		c0.23,0,0.44-0.151,0.502-0.387l1.002-3.741l2.562-1.48v2.959l-2.74,2.741c-0.203,0.202-0.203,0.533,0,0.736
		c0.203,0.202,0.533,0.202,0.737,0l2.002-2v2.964l-5.888,5.891c-0.203,0.203-0.203,0.532,0,0.736c0.203,0.202,0.533,0.202,0.737,0
		l5.151-5.152v7.744c0,0.287,0.233,0.521,0.521,0.521s0.521-0.233,0.521-0.521v-7.744l5.149,5.152
		c0.103,0.102,0.235,0.151,0.369,0.151s0.269-0.052,0.368-0.151c0.203-0.204,0.203-0.533,0-0.736l-5.889-5.893V23.37l2.002,2.004
		c0.104,0.103,0.236,0.151,0.369,0.151c0.131,0,0.268-0.051,0.368-0.151c0.204-0.202,0.204-0.533,0-0.735l-2.739-2.74v-2.957
		l2.562,1.479l1.002,3.741c0.062,0.233,0.272,0.387,0.501,0.387c0.045,0,0.09-0.006,0.137-0.019
		c0.277-0.073,0.442-0.362,0.368-0.637l-0.731-2.736l2.565,1.482l2.154,8.043c0.063,0.232,0.274,0.387,0.502,0.387
		c0.046,0,0.091-0.006,0.137-0.02c0.278-0.072,0.442-0.359,0.368-0.637l-1.889-7.037l6.709,3.874
		c0.082,0.048,0.172,0.069,0.261,0.069c0.18,0,0.354-0.094,0.452-0.262c0.144-0.248,0.059-0.566-0.19-0.712l-6.708-3.874
		l7.038-1.884c0.279-0.075,0.443-0.36,0.368-0.639C34.091,19.669,33.807,19.505,33.527,19.579z"/>
</g>
</svg>
