<?xml version="1.0" encoding="utf-8"?>
<!-- Generator: Adobe Illustrator 15.1.0, SVG Export Plug-In . SVG Version: 6.00 Build 0)  -->
<!DOCTYPE svg PUBLIC "-//W3C//DTD SVG 1.1//EN" "http://www.w3.org/Graphics/SVG/1.1/DTD/svg11.dtd">
<svg version="1.1" id="Capa_1" xmlns="http://www.w3.org/2000/svg" xmlns:xlink="http://www.w3.org/1999/xlink" x="0px" y="0px"
	 width="36.074px" height="36.074px" viewBox="0 0 36.074 36.074" enable-background="new 0 0 36.074 36.074" xml:space="preserve">
<g>
	<path fill="#FFFFFF" d="M33.526,19.58l-8.045,2.153l-6.403-3.697l6.403-3.698l8.045,2.155c0.045,0.013,0.091,0.018,0.136,0.018
		c0.23,0,0.44-0.153,0.502-0.387c0.073-0.278-0.09-0.563-0.369-0.638l-7.037-1.885l6.707-3.874c0.248-0.144,0.334-0.462,0.19-0.711
		c-0.146-0.25-0.464-0.334-0.712-0.19l-6.705,3.873l1.887-7.037c0.072-0.278-0.092-0.563-0.369-0.638
		c-0.276-0.073-0.562,0.09-0.637,0.369l-2.156,8.042l-6.403,3.698V9.739l5.887-5.889c0.204-0.203,0.204-0.533,0-0.737
		c-0.202-0.203-0.532-0.203-0.735,0l-5.151,5.153V0.521C18.558,0.234,18.324,0,18.037,0s-0.521,0.234-0.521,0.521v7.745
		l-5.151-5.153c-0.204-0.203-0.534-0.203-0.737,0c-0.203,0.204-0.203,0.534,0,0.737l5.888,5.889v7.396l-6.405-3.698L8.956,5.394
		C8.88,5.116,8.596,4.952,8.318,5.025C8.04,5.099,7.875,5.385,7.949,5.663L9.834,12.7L3.128,8.826
		C2.88,8.683,2.561,8.767,2.417,9.017c-0.144,0.249-0.058,0.568,0.19,0.711l6.708,3.874l-7.039,1.885
		C2,15.561,1.834,15.847,1.909,16.124c0.062,0.233,0.272,0.387,0.502,0.387c0.045,0,0.09-0.005,0.135-0.018l8.045-2.155l6.404,3.698
		l-6.403,3.697L2.547,19.58c-0.275-0.072-0.563,0.09-0.637,0.367C1.835,20.225,2,20.509,2.278,20.585l7.039,1.883l-6.708,3.875
		c-0.249,0.145-0.334,0.462-0.19,0.712c0.097,0.167,0.272,0.261,0.452,0.261c0.088,0,0.178-0.021,0.26-0.068l6.708-3.875
		L7.952,30.41c-0.074,0.278,0.091,0.563,0.369,0.637c0.045,0.014,0.091,0.02,0.136,0.02c0.229,0,0.439-0.152,0.502-0.387
		l2.155-8.042l6.404-3.699v7.396l-5.887,5.891c-0.204,0.201-0.204,0.533,0,0.736c0.203,0.201,0.533,0.201,0.736,0l5.151-5.152v7.746
		c0,0.285,0.233,0.521,0.521,0.521c0.287,0,0.521-0.234,0.521-0.521v-7.746l5.15,5.152c0.103,0.103,0.235,0.151,0.369,0.151
		c0.135,0,0.268-0.052,0.367-0.151c0.204-0.203,0.204-0.535,0-0.736l-5.89-5.891V18.94l6.403,3.697l2.154,8.044
		c0.062,0.232,0.273,0.385,0.502,0.385c0.045,0,0.09-0.004,0.137-0.018c0.277-0.074,0.441-0.359,0.367-0.639l-1.888-7.035
		l6.708,3.873c0.083,0.049,0.172,0.07,0.262,0.07c0.18,0,0.354-0.095,0.451-0.261c0.145-0.25,0.059-0.567-0.189-0.714l-6.709-3.872
		l7.039-1.886c0.279-0.073,0.442-0.36,0.367-0.637C34.089,19.667,33.806,19.505,33.526,19.58z"/>
</g>
</svg>
