<?xml version="1.0" encoding="utf-8"?>
<!-- Generator: Adobe Illustrator 15.1.0, SVG Export Plug-In . SVG Version: 6.00 Build 0)  -->
<!DOCTYPE svg PUBLIC "-//W3C//DTD SVG 1.1//EN" "http://www.w3.org/Graphics/SVG/1.1/DTD/svg11.dtd">
<svg version="1.1" id="Capa_1" xmlns="http://www.w3.org/2000/svg" xmlns:xlink="http://www.w3.org/1999/xlink" x="0px" y="0px"
	 width="34.627px" height="34.628px" viewBox="0 0 34.627 34.628" enable-background="new 0 0 34.627 34.628" xml:space="preserve">
<g>
	<path fill="#FFFFFF" d="M32.187,18.794l-7.727,2.066l-2.463-1.422l2.627-0.703c0.27-0.07,0.426-0.346,0.354-0.611
		c-0.071-0.267-0.345-0.426-0.611-0.354l-3.594,0.962l-2.459-1.418l2.461-1.42l3.592,0.963c0.044,0.012,0.087,0.017,0.13,0.017
		c0.221,0,0.424-0.147,0.483-0.371c0.069-0.267-0.088-0.541-0.354-0.612l-2.627-0.704l2.465-1.422l7.724,2.069
		c0.043,0.012,0.086,0.017,0.129,0.017c0.222,0,0.424-0.147,0.481-0.371c0.072-0.267-0.086-0.541-0.354-0.612l-6.756-1.81
		l3.019-1.742l2.948,0.791c0.043,0.012,0.087,0.017,0.13,0.017c0.221,0,0.424-0.147,0.483-0.371
		c0.069-0.267-0.088-0.541-0.354-0.612l-1.981-0.532l2.196-1.269c0.238-0.138,0.319-0.444,0.185-0.683
		c-0.14-0.24-0.444-0.321-0.685-0.183l-2.194,1.268l0.528-1.979c0.072-0.267-0.086-0.541-0.354-0.612
		c-0.269-0.069-0.541,0.087-0.612,0.354l-0.789,2.947l-3.019,1.743l1.812-6.755c0.071-0.267-0.086-0.541-0.354-0.612
		c-0.271-0.07-0.541,0.086-0.613,0.354l-2.067,7.721l-2.465,1.423l0.705-2.626c0.069-0.267-0.088-0.541-0.354-0.612
		c-0.271-0.07-0.539,0.087-0.613,0.354l-0.963,3.592l-2.457,1.416v-2.84l2.629-2.631c0.195-0.195,0.195-0.512,0-0.707
		c-0.193-0.195-0.512-0.195-0.707,0l-1.922,1.924V9.349l5.65-5.653c0.195-0.195,0.195-0.512,0-0.707
		c-0.193-0.195-0.512-0.195-0.707,0l-4.943,4.946V4.451l2.158-2.158c0.193-0.195,0.193-0.512,0-0.707
		c-0.195-0.195-0.514-0.195-0.707,0l-1.451,1.451V0.5c0-0.276-0.227-0.5-0.5-0.5c-0.275,0-0.5,0.224-0.5,0.5v2.536l-1.452-1.451
		c-0.195-0.195-0.512-0.195-0.707,0c-0.195,0.195-0.195,0.512,0,0.707l2.158,2.158v3.484L11.87,2.988
		c-0.195-0.195-0.512-0.195-0.707,0c-0.195,0.195-0.195,0.512,0,0.707l5.652,5.653v2.847l-1.923-1.924
		c-0.195-0.195-0.514-0.195-0.707,0c-0.195,0.195-0.195,0.512,0,0.707l2.63,2.631v2.839l-2.459-1.42l-0.963-3.592
		c-0.072-0.267-0.345-0.424-0.613-0.354c-0.267,0.071-0.425,0.346-0.354,0.612l0.703,2.626l-2.465-1.423L8.597,5.176
		C8.525,4.909,8.253,4.752,7.984,4.822C7.716,4.893,7.559,5.168,7.629,5.434l1.812,6.755l-3.02-1.743L5.633,7.499
		c-0.07-0.268-0.342-0.424-0.611-0.354C4.754,7.216,4.597,7.491,4.667,7.757l0.531,1.981L3.003,8.47
		C2.766,8.334,2.458,8.414,2.32,8.653C2.181,8.892,2.263,9.198,2.503,9.336L4.7,10.605l-1.984,0.532
		c-0.267,0.071-0.424,0.346-0.354,0.612c0.061,0.224,0.264,0.371,0.481,0.371c0.045,0,0.088-0.005,0.132-0.017l2.948-0.791
		l3.019,1.742l-6.757,1.81c-0.27,0.071-0.428,0.346-0.354,0.612c0.061,0.224,0.262,0.371,0.482,0.371
		c0.043,0,0.086-0.005,0.129-0.017l7.724-2.069l2.463,1.422l-2.627,0.704c-0.267,0.071-0.424,0.346-0.354,0.612
		c0.061,0.224,0.264,0.371,0.481,0.371c0.043,0,0.086-0.005,0.132-0.017l3.592-0.963l2.46,1.42l-2.459,1.42l-3.596-0.962
		c-0.262-0.072-0.538,0.087-0.61,0.354c-0.07,0.267,0.087,0.541,0.354,0.609l2.627,0.705l-2.465,1.422l-7.723-2.066
		c-0.261-0.069-0.54,0.086-0.611,0.354c-0.073,0.268,0.086,0.541,0.354,0.609l6.757,1.812l-3.02,1.742l-2.946-0.789
		c-0.269-0.072-0.54,0.086-0.613,0.354c-0.07,0.269,0.087,0.541,0.354,0.611l1.982,0.531L2.5,25.287
		c-0.237,0.139-0.319,0.443-0.183,0.685c0.093,0.159,0.261,0.25,0.433,0.25c0.086,0,0.172-0.021,0.25-0.065l2.197-1.271l-0.531,1.98
		c-0.069,0.268,0.088,0.541,0.354,0.611c0.043,0.012,0.086,0.018,0.129,0.018c0.222,0,0.423-0.146,0.482-0.371l0.789-2.947
		l3.018-1.739L7.626,29.19c-0.069,0.269,0.088,0.541,0.354,0.61c0.044,0.015,0.087,0.019,0.13,0.019c0.221,0,0.424-0.146,0.481-0.37
		l2.068-7.722l2.465-1.425l-0.703,2.628c-0.069,0.269,0.088,0.541,0.354,0.61c0.043,0.012,0.086,0.019,0.129,0.019
		c0.222,0,0.423-0.146,0.483-0.371l0.962-3.592l2.459-1.421v2.839l-2.63,2.631c-0.195,0.194-0.195,0.513,0,0.707
		c0.194,0.194,0.512,0.194,0.707,0l1.926-1.918v2.847l-5.652,5.653c-0.195,0.194-0.195,0.512,0,0.707
		c0.195,0.194,0.512,0.194,0.707,0l4.945-4.947v3.483l-2.158,2.158c-0.195,0.193-0.195,0.513,0,0.707
		c0.195,0.193,0.512,0.193,0.707,0l1.451-1.451v2.537c0,0.273,0.225,0.5,0.5,0.5c0.274,0,0.5-0.227,0.5-0.5v-2.537l1.452,1.451
		c0.098,0.099,0.225,0.146,0.354,0.146s0.256-0.049,0.354-0.146c0.193-0.194,0.193-0.514,0-0.707l-2.159-2.158v-3.483l4.944,4.947
		c0.1,0.099,0.227,0.146,0.354,0.146c0.129,0,0.257-0.05,0.354-0.146c0.195-0.195,0.195-0.513,0-0.707l-5.651-5.654v-2.846
		l1.923,1.924c0.099,0.099,0.226,0.146,0.354,0.146c0.127,0,0.258-0.049,0.354-0.146c0.195-0.194,0.195-0.512,0-0.707l-2.63-2.631
		v-2.84l2.458,1.42l0.963,3.592c0.062,0.226,0.263,0.371,0.481,0.371c0.041,0,0.087-0.004,0.13-0.017
		c0.268-0.071,0.426-0.348,0.354-0.612l-0.703-2.625l2.463,1.422l2.067,7.724c0.062,0.223,0.265,0.369,0.483,0.369
		c0.044,0,0.087-0.005,0.13-0.017c0.269-0.072,0.426-0.347,0.354-0.613l-1.812-6.756l3.021,1.744l0.789,2.946
		c0.062,0.224,0.262,0.371,0.481,0.371c0.043,0,0.086-0.006,0.129-0.02c0.269-0.068,0.426-0.346,0.354-0.609l-0.528-1.981
		l2.194,1.271c0.08,0.045,0.166,0.065,0.25,0.065c0.172,0,0.342-0.089,0.435-0.25c0.139-0.238,0.058-0.545-0.185-0.683l-2.194-1.271
		l1.979-0.531c0.268-0.068,0.426-0.346,0.354-0.609c-0.072-0.27-0.345-0.426-0.613-0.354l-2.946,0.791l-3.021-1.743l6.758-1.81
		c0.269-0.072,0.427-0.347,0.354-0.613C32.726,18.882,32.452,18.725,32.187,18.794z"/>
</g>
</svg>
